<mxfile host="app.diagrams.net" agent="Mozilla/5.0 (Windows NT 10.0; Win64; x64) AppleWebKit/537.36 (KHTML, like Gecko) Chrome/128.0.0.0 Safari/537.36 OPR/114.0.0.0" version="25.0.3">
  <diagram name="PÃ¡gina-1" id="QxZHuA9BTodlCsACra_R">
    <mxGraphModel dx="2389" dy="940" grid="1" gridSize="10" guides="1" tooltips="1" connect="1" arrows="1" fold="1" page="1" pageScale="1" pageWidth="827" pageHeight="1169" math="0" shadow="0">
      <root>
        <mxCell id="0" />
        <mxCell id="1" parent="0" />
        <mxCell id="p4GV2qHJiXl9e6osWFzK-28" value="" style="shape=mxgraph.cisco.switches.workgroup_switch;sketch=0;html=1;pointerEvents=1;dashed=0;fillColor=#585959;strokeColor=#ffffff;strokeWidth=2;verticalLabelPosition=bottom;verticalAlign=top;align=center;outlineConnect=0;gradientColor=#E0E0E0;" vertex="1" parent="1">
          <mxGeometry x="447.3" y="414.23" width="125.15" height="54.4" as="geometry" />
        </mxCell>
        <mxCell id="p4GV2qHJiXl9e6osWFzK-27" value="" style="shape=mxgraph.cisco.switches.atm_switch;sketch=0;html=1;pointerEvents=1;dashed=0;fillColor=#585959;strokeColor=#ffffff;strokeWidth=2;verticalLabelPosition=bottom;verticalAlign=top;align=center;outlineConnect=0;gradientColor=#E0E0E0;" vertex="1" parent="1">
          <mxGeometry x="47.5" y="40" width="98.5" height="64" as="geometry" />
        </mxCell>
        <mxCell id="p4GV2qHJiXl9e6osWFzK-21" value="" style="shape=mxgraph.cisco.computers_and_peripherals.ibm_mainframe;sketch=0;html=1;pointerEvents=1;dashed=0;fillColor=#585959;strokeColor=#ffffff;strokeWidth=2;verticalLabelPosition=bottom;verticalAlign=top;align=center;outlineConnect=0;gradientColor=#E0E0E0;" vertex="1" parent="1">
          <mxGeometry x="51.5" y="228.20000000000002" width="92.5" height="170.6" as="geometry" />
        </mxCell>
        <mxCell id="p4GV2qHJiXl9e6osWFzK-18" value="" style="shape=mxgraph.cisco.servers.fileserver;html=1;pointerEvents=1;strokeWidth=2;verticalLabelPosition=bottom;verticalAlign=top;align=center;outlineConnect=0;fillColor=#585959;strokeColor=#FFFFFF;fillStyle=auto;gradientColor=#E0E0E0;perimeterSpacing=1;shadow=0;gradientDirection=south;" vertex="1" parent="1">
          <mxGeometry x="245.85000000000002" y="95.27" width="68.3" height="90" as="geometry" />
        </mxCell>
        <mxCell id="p4GV2qHJiXl9e6osWFzK-17" value="" style="shape=mxgraph.cisco.servers.fileserver;html=1;pointerEvents=1;strokeWidth=2;verticalLabelPosition=bottom;verticalAlign=top;align=center;outlineConnect=0;fillColor=#585959;strokeColor=#FFFFFF;fillStyle=auto;gradientColor=#E0E0E0;perimeterSpacing=1;shadow=0;gradientDirection=south;" vertex="1" parent="1">
          <mxGeometry x="711.35" y="95.27" width="68.3" height="90" as="geometry" />
        </mxCell>
        <mxCell id="p4GV2qHJiXl9e6osWFzK-13" value="" style="shape=mxgraph.cisco.servers.fileserver;html=1;pointerEvents=1;strokeWidth=2;verticalLabelPosition=bottom;verticalAlign=top;align=center;outlineConnect=0;fillColor=#585959;strokeColor=#FFFFFF;fillStyle=auto;gradientColor=#E0E0E0;perimeterSpacing=1;shadow=0;gradientDirection=south;" vertex="1" parent="1">
          <mxGeometry x="405.85" y="95.27" width="68.3" height="90" as="geometry" />
        </mxCell>
        <mxCell id="gzpW1YzoJddCeBnZML00-2" style="edgeStyle=orthogonalEdgeStyle;rounded=0;orthogonalLoop=1;jettySize=auto;html=1;startArrow=classic;startFill=1;" parent="1" edge="1">
          <mxGeometry relative="1" as="geometry">
            <mxPoint x="98.04761904761904" y="548" as="sourcePoint" />
            <mxPoint x="97.5238095238094" y="398.79999999999995" as="targetPoint" />
          </mxGeometry>
        </mxCell>
        <mxCell id="gzpW1YzoJddCeBnZML00-3" style="rounded=0;orthogonalLoop=1;jettySize=auto;html=1;startArrow=classic;startFill=1;" parent="1" edge="1">
          <mxGeometry relative="1" as="geometry">
            <mxPoint x="97.68671679197996" y="220" as="sourcePoint" />
            <mxPoint x="97.91645781119473" y="110" as="targetPoint" />
          </mxGeometry>
        </mxCell>
        <mxCell id="gzpW1YzoJddCeBnZML00-4" value="&lt;div&gt;Gatewat-CTIC&lt;/div&gt;200.239.72.254" style="text;html=1;align=center;verticalAlign=middle;whiteSpace=wrap;rounded=0;fillColor=#f5f5f5;fontColor=#333333;strokeColor=#666666;fillStyle=solid;shadow=0;" parent="1" vertex="1">
          <mxGeometry x="47.5" y="130" width="100" height="56" as="geometry" />
        </mxCell>
        <mxCell id="gzpW1YzoJddCeBnZML00-5" value="&lt;div&gt;DHCP-Server-CTIC&lt;br&gt;&lt;/div&gt;200.239.67.65" style="text;html=1;align=center;verticalAlign=middle;whiteSpace=wrap;rounded=0;fillColor=#f5f5f5;fontColor=#333333;strokeColor=#666666;fillStyle=solid;shadow=0;" parent="1" vertex="1">
          <mxGeometry x="39.5" y="415.6" width="116" height="56" as="geometry" />
        </mxCell>
        <mxCell id="gzpW1YzoJddCeBnZML00-6" value="&lt;div&gt;Mikrotik&lt;/div&gt;&lt;div&gt;192.168.1.1&lt;/div&gt;" style="text;html=1;align=center;verticalAlign=middle;whiteSpace=wrap;rounded=0;fillColor=#f5f5f5;fontColor=#333333;strokeColor=#666666;fillStyle=solid;shadow=0;" parent="1" vertex="1">
          <mxGeometry x="57" y="610" width="82" height="56" as="geometry" />
        </mxCell>
        <mxCell id="gzpW1YzoJddCeBnZML00-7" style="edgeStyle=orthogonalEdgeStyle;rounded=0;orthogonalLoop=1;jettySize=auto;html=1;startArrow=classic;startFill=1;" parent="1" edge="1" source="p4GV2qHJiXl9e6osWFzK-28">
          <mxGeometry relative="1" as="geometry">
            <mxPoint x="280.0344827586207" y="186.81999999999994" as="targetPoint" />
            <mxPoint x="490" y="398" as="sourcePoint" />
            <Array as="points">
              <mxPoint x="490" y="341" />
              <mxPoint x="280" y="341" />
            </Array>
          </mxGeometry>
        </mxCell>
        <mxCell id="gzpW1YzoJddCeBnZML00-8" style="edgeStyle=orthogonalEdgeStyle;rounded=0;orthogonalLoop=1;jettySize=auto;html=1;startArrow=classic;startFill=1;endSize=6;startSize=6;sourcePerimeterSpacing=0;exitX=0.5;exitY=0;exitDx=0;exitDy=0;exitPerimeter=0;" parent="1" edge="1" source="p4GV2qHJiXl9e6osWFzK-28">
          <mxGeometry relative="1" as="geometry">
            <mxPoint x="510" y="410" as="sourcePoint" />
            <Array as="points">
              <mxPoint x="510" y="300" />
              <mxPoint x="440" y="300" />
            </Array>
            <mxPoint x="440.0344827586207" y="186.81999999999994" as="targetPoint" />
          </mxGeometry>
        </mxCell>
        <mxCell id="gzpW1YzoJddCeBnZML00-9" style="edgeStyle=orthogonalEdgeStyle;rounded=0;orthogonalLoop=1;jettySize=auto;html=1;startArrow=classic;startFill=1;" parent="1" edge="1" source="p4GV2qHJiXl9e6osWFzK-28">
          <mxGeometry relative="1" as="geometry">
            <mxPoint x="530" y="380" as="sourcePoint" />
            <Array as="points">
              <mxPoint x="530" y="300" />
              <mxPoint x="590" y="300" />
            </Array>
            <mxPoint x="590" y="186.81999999999994" as="targetPoint" />
          </mxGeometry>
        </mxCell>
        <mxCell id="gzpW1YzoJddCeBnZML00-10" style="edgeStyle=orthogonalEdgeStyle;rounded=0;orthogonalLoop=1;jettySize=auto;html=1;startArrow=classic;startFill=1;" parent="1" source="p4GV2qHJiXl9e6osWFzK-28" edge="1">
          <mxGeometry relative="1" as="geometry">
            <mxPoint x="550.0344827586207" y="398.79999999999984" as="sourcePoint" />
            <mxPoint x="746.0344827586205" y="189.9999999999999" as="targetPoint" />
            <Array as="points">
              <mxPoint x="550" y="340" />
              <mxPoint x="746" y="340" />
            </Array>
          </mxGeometry>
        </mxCell>
        <mxCell id="gzpW1YzoJddCeBnZML00-11" style="edgeStyle=orthogonalEdgeStyle;rounded=0;orthogonalLoop=1;jettySize=auto;html=1;startArrow=classic;startFill=1;entryX=0.182;entryY=0.132;entryDx=0;entryDy=0;entryPerimeter=0;" parent="1" edge="1" target="p4GV2qHJiXl9e6osWFzK-28">
          <mxGeometry relative="1" as="geometry">
            <mxPoint x="135.75" y="573.047619047619" as="sourcePoint" />
            <mxPoint x="446" y="422" as="targetPoint" />
            <Array as="points">
              <mxPoint x="280" y="573" />
              <mxPoint x="280" y="421" />
            </Array>
          </mxGeometry>
        </mxCell>
        <mxCell id="gzpW1YzoJddCeBnZML00-15" value="&lt;div&gt;Zabbix Server&lt;br&gt;&lt;/div&gt;&lt;div&gt;192.168.1.20&lt;/div&gt;" style="text;html=1;align=center;verticalAlign=middle;whiteSpace=wrap;rounded=0;fillColor=#f5f5f5;fontColor=#333333;strokeColor=#666666;fillStyle=solid;shadow=0;" parent="1" vertex="1">
          <mxGeometry x="230" y="210.00000000000003" width="100" height="56" as="geometry" />
        </mxCell>
        <mxCell id="gzpW1YzoJddCeBnZML00-19" value="&lt;div&gt;Lacis&lt;br&gt;&lt;/div&gt;&lt;div&gt;192.168.1.10&lt;/div&gt;" style="text;html=1;align=center;verticalAlign=middle;whiteSpace=wrap;rounded=0;fillColor=#f5f5f5;fontColor=#333333;strokeColor=#666666;fillStyle=solid;shadow=0;" parent="1" vertex="1">
          <mxGeometry x="388" y="210.00000000000003" width="100" height="56" as="geometry" />
        </mxCell>
        <mxCell id="gzpW1YzoJddCeBnZML00-20" value="&lt;div&gt;HODOR&lt;br&gt;&lt;/div&gt;&lt;div&gt;192.168.1.2&lt;/div&gt;" style="text;html=1;align=center;verticalAlign=middle;whiteSpace=wrap;rounded=0;fillColor=#f5f5f5;fontColor=#333333;strokeColor=#666666;fillStyle=solid;shadow=0;" parent="1" vertex="1">
          <mxGeometry x="540" y="210.00000000000003" width="100" height="56" as="geometry" />
        </mxCell>
        <mxCell id="gzpW1YzoJddCeBnZML00-21" value="&lt;div&gt;AVANCOS&lt;/div&gt;&lt;div&gt;192.168.1.9&lt;br&gt;&lt;/div&gt;" style="text;html=1;align=center;verticalAlign=middle;whiteSpace=wrap;rounded=0;fillColor=#f5f5f5;fontColor=#333333;strokeColor=#666666;fillStyle=solid;shadow=0;" parent="1" vertex="1">
          <mxGeometry x="695.5" y="210" width="100" height="56" as="geometry" />
        </mxCell>
        <mxCell id="gzpW1YzoJddCeBnZML00-22" style="edgeStyle=orthogonalEdgeStyle;rounded=0;orthogonalLoop=1;jettySize=auto;html=1;startArrow=classic;startFill=1;entryX=0;entryY=0.5;entryDx=0;entryDy=0;entryPerimeter=0;" parent="1" target="p4GV2qHJiXl9e6osWFzK-37" edge="1">
          <mxGeometry relative="1" as="geometry">
            <mxPoint x="571.7" y="441.43499999999995" as="sourcePoint" />
            <mxPoint x="1195.6" y="441.41666666666674" as="targetPoint" />
          </mxGeometry>
        </mxCell>
        <mxCell id="gzpW1YzoJddCeBnZML00-25" style="edgeStyle=orthogonalEdgeStyle;rounded=0;orthogonalLoop=1;jettySize=auto;html=1;startArrow=classic;startFill=1;" parent="1" target="p4GV2qHJiXl9e6osWFzK-28" edge="1">
          <mxGeometry relative="1" as="geometry">
            <Array as="points">
              <mxPoint x="680" y="600" />
              <mxPoint x="510" y="600" />
            </Array>
            <mxPoint x="680" y="650" as="sourcePoint" />
            <mxPoint x="509.9975999999999" y="474.09340999999995" as="targetPoint" />
          </mxGeometry>
        </mxCell>
        <mxCell id="gzpW1YzoJddCeBnZML00-27" style="edgeStyle=orthogonalEdgeStyle;rounded=0;orthogonalLoop=1;jettySize=auto;html=1;startArrow=classic;startFill=1;entryX=0.341;entryY=1.025;entryDx=0;entryDy=0;entryPerimeter=0;" parent="1" edge="1" target="p4GV2qHJiXl9e6osWFzK-28">
          <mxGeometry relative="1" as="geometry">
            <mxPoint x="490" y="480" as="targetPoint" />
            <Array as="points" />
            <mxPoint x="490" y="650" as="sourcePoint" />
          </mxGeometry>
        </mxCell>
        <mxCell id="gzpW1YzoJddCeBnZML00-29" style="edgeStyle=orthogonalEdgeStyle;rounded=0;orthogonalLoop=1;jettySize=auto;html=1;startArrow=classic;startFill=1;" parent="1" edge="1" target="p4GV2qHJiXl9e6osWFzK-28">
          <mxGeometry relative="1" as="geometry">
            <mxPoint x="470" y="470" as="targetPoint" />
            <Array as="points">
              <mxPoint x="300" y="600" />
              <mxPoint x="470" y="600" />
            </Array>
            <mxPoint x="300.0344827586207" y="650" as="sourcePoint" />
          </mxGeometry>
        </mxCell>
        <mxCell id="gzpW1YzoJddCeBnZML00-31" value="&lt;div&gt;Switch 1 DELL CORE&lt;br&gt;&lt;/div&gt;&lt;div&gt;192.168.2.10&lt;/div&gt;" style="text;html=1;align=center;verticalAlign=middle;whiteSpace=wrap;rounded=0;fillColor=#f5f5f5;fontColor=#333333;strokeColor=#666666;fillStyle=solid;shadow=0;" parent="1" vertex="1">
          <mxGeometry x="442" y="492" width="135" height="56" as="geometry" />
        </mxCell>
        <mxCell id="gzpW1YzoJddCeBnZML00-32" value="&lt;div&gt;CameraNVR-1&lt;br&gt;&lt;/div&gt;&lt;div&gt;192.168.1.11&lt;/div&gt;" style="text;html=1;align=center;verticalAlign=middle;whiteSpace=wrap;rounded=0;fillColor=#f5f5f5;fontColor=#333333;strokeColor=#666666;fillStyle=solid;shadow=0;" parent="1" vertex="1">
          <mxGeometry x="230.00000000000003" y="710" width="135" height="56" as="geometry" />
        </mxCell>
        <mxCell id="gzpW1YzoJddCeBnZML00-33" value="&lt;div&gt;CameraNVR-2&lt;/div&gt;&lt;div&gt;192.168.1.12&lt;br&gt;&lt;/div&gt;" style="text;html=1;align=center;verticalAlign=middle;whiteSpace=wrap;rounded=0;fillColor=#f5f5f5;fontColor=#333333;strokeColor=#666666;fillStyle=solid;shadow=0;" parent="1" vertex="1">
          <mxGeometry x="421.1" y="710" width="135" height="56" as="geometry" />
        </mxCell>
        <mxCell id="gzpW1YzoJddCeBnZML00-34" value="&lt;div&gt;CameraNVR-3&lt;br&gt;&lt;/div&gt;&lt;div&gt;192.168.2.13&lt;/div&gt;" style="text;html=1;align=center;verticalAlign=middle;whiteSpace=wrap;rounded=0;fillColor=#f5f5f5;fontColor=#333333;strokeColor=#666666;fillStyle=solid;shadow=0;" parent="1" vertex="1">
          <mxGeometry x="610.4" y="710" width="135" height="56" as="geometry" />
        </mxCell>
        <mxCell id="gzpW1YzoJddCeBnZML00-35" style="edgeStyle=orthogonalEdgeStyle;rounded=0;orthogonalLoop=1;jettySize=auto;html=1;startArrow=classic;startFill=1;" parent="1" edge="1" source="p4GV2qHJiXl9e6osWFzK-37">
          <mxGeometry relative="1" as="geometry">
            <mxPoint x="1258" y="410" as="sourcePoint" />
            <mxPoint x="1258.666666666667" y="185.26999999999998" as="targetPoint" />
            <Array as="points">
              <mxPoint x="1259" y="300" />
              <mxPoint x="1259" y="300" />
            </Array>
          </mxGeometry>
        </mxCell>
        <mxCell id="gzpW1YzoJddCeBnZML00-36" style="edgeStyle=orthogonalEdgeStyle;rounded=0;orthogonalLoop=1;jettySize=auto;html=1;startArrow=classic;startFill=1;" parent="1" edge="1" source="p4GV2qHJiXl9e6osWFzK-37">
          <mxGeometry relative="1" as="geometry">
            <mxPoint x="1280" y="423" as="sourcePoint" />
            <Array as="points">
              <mxPoint x="1280" y="320" />
              <mxPoint x="1552" y="320" />
            </Array>
            <mxPoint x="1552" y="185.26999999999998" as="targetPoint" />
          </mxGeometry>
        </mxCell>
        <mxCell id="gzpW1YzoJddCeBnZML00-42" value="&lt;div&gt;Switch 4 DELL SalaVidro&lt;br&gt;&lt;/div&gt;&lt;div&gt;192.168.2.4&lt;/div&gt;" style="text;html=1;align=center;verticalAlign=middle;whiteSpace=wrap;rounded=0;fillColor=#f5f5f5;fontColor=#333333;strokeColor=#666666;fillStyle=solid;shadow=0;" parent="1" vertex="1">
          <mxGeometry x="1182.95" y="210" width="149.7" height="56" as="geometry" />
        </mxCell>
        <mxCell id="gzpW1YzoJddCeBnZML00-43" value="&lt;div&gt;Switch 5 DELL SalaSPD&lt;br&gt;&lt;/div&gt;&lt;div&gt;192.168.2.5&lt;/div&gt;" style="text;html=1;align=center;verticalAlign=middle;whiteSpace=wrap;rounded=0;fillColor=#f5f5f5;fontColor=#333333;strokeColor=#666666;fillStyle=solid;shadow=0;" parent="1" vertex="1">
          <mxGeometry x="1479.55" y="210" width="145.3" height="56" as="geometry" />
        </mxCell>
        <mxCell id="gzpW1YzoJddCeBnZML00-45" value="&lt;div&gt;WifiSala1&lt;br&gt;&lt;/div&gt;&lt;div&gt;192.168.1.5&lt;/div&gt;" style="text;html=1;align=center;verticalAlign=middle;whiteSpace=wrap;rounded=0;fillColor=#f5f5f5;fontColor=#333333;strokeColor=#666666;fillStyle=solid;shadow=0;" parent="1" vertex="1">
          <mxGeometry x="1507.3299999999997" y="489" width="89.75" height="56" as="geometry" />
        </mxCell>
        <mxCell id="gzpW1YzoJddCeBnZML00-46" style="edgeStyle=orthogonalEdgeStyle;rounded=0;orthogonalLoop=1;jettySize=auto;html=1;startArrow=classic;startFill=1;" parent="1" edge="1">
          <mxGeometry relative="1" as="geometry">
            <mxPoint x="1260" y="470" as="targetPoint" />
            <Array as="points">
              <mxPoint x="1400" y="640" />
              <mxPoint x="1261" y="640" />
            </Array>
            <mxPoint x="1480.0285714285715" y="681.8" as="sourcePoint" />
          </mxGeometry>
        </mxCell>
        <mxCell id="gzpW1YzoJddCeBnZML00-48" style="edgeStyle=orthogonalEdgeStyle;rounded=0;orthogonalLoop=1;jettySize=auto;html=1;startArrow=classic;startFill=1;" parent="1" edge="1">
          <mxGeometry relative="1" as="geometry">
            <mxPoint x="1240" y="463" as="targetPoint" />
            <Array as="points">
              <mxPoint x="1240" y="530" />
              <mxPoint x="1240" y="530" />
            </Array>
            <mxPoint x="1240.0285714285715" y="681.8" as="sourcePoint" />
          </mxGeometry>
        </mxCell>
        <mxCell id="gzpW1YzoJddCeBnZML00-50" style="edgeStyle=orthogonalEdgeStyle;rounded=0;orthogonalLoop=1;jettySize=auto;html=1;startArrow=classic;startFill=1;" parent="1" edge="1">
          <mxGeometry relative="1" as="geometry">
            <mxPoint x="1221" y="470" as="targetPoint" />
            <Array as="points">
              <mxPoint x="1000" y="640" />
              <mxPoint x="1221" y="640" />
            </Array>
            <mxPoint x="1000.0285714285715" y="681.8" as="sourcePoint" />
          </mxGeometry>
        </mxCell>
        <mxCell id="gzpW1YzoJddCeBnZML00-52" value="&lt;div&gt;Switch 2 Aruba HP&lt;br&gt;&lt;/div&gt;&lt;div&gt;192.168.2.2&lt;/div&gt;" style="text;html=1;align=center;verticalAlign=middle;whiteSpace=wrap;rounded=0;fillColor=#f5f5f5;fontColor=#333333;strokeColor=#666666;fillStyle=solid;shadow=0;" parent="1" vertex="1">
          <mxGeometry x="1190.3" y="492" width="135" height="56" as="geometry" />
        </mxCell>
        <mxCell id="gzpW1YzoJddCeBnZML00-53" value="&lt;div&gt;MHDX-1&lt;br&gt;&lt;/div&gt;&lt;div&gt;192.168.1.126&lt;/div&gt;" style="text;html=1;align=center;verticalAlign=middle;whiteSpace=wrap;rounded=0;fillColor=#f5f5f5;fontColor=#333333;strokeColor=#666666;fillStyle=solid;shadow=0;" parent="1" vertex="1">
          <mxGeometry x="955.13" y="780" width="89.75" height="56" as="geometry" />
        </mxCell>
        <mxCell id="gzpW1YzoJddCeBnZML00-54" value="&lt;div&gt;MHDX-2&lt;br&gt;&lt;/div&gt;&lt;div&gt;192.168.1.102&lt;/div&gt;" style="text;html=1;align=center;verticalAlign=middle;whiteSpace=wrap;rounded=0;fillColor=#f5f5f5;fontColor=#333333;strokeColor=#666666;fillStyle=solid;shadow=0;" parent="1" vertex="1">
          <mxGeometry x="1196.1200000000001" y="780" width="89.75" height="56" as="geometry" />
        </mxCell>
        <mxCell id="gzpW1YzoJddCeBnZML00-55" value="&lt;div&gt;FIREWARE&lt;br&gt;&lt;/div&gt;&lt;div&gt;192.168.1.7&lt;/div&gt;" style="text;html=1;align=center;verticalAlign=middle;whiteSpace=wrap;rounded=0;fillColor=#f5f5f5;fontColor=#333333;strokeColor=#666666;fillStyle=solid;shadow=0;" parent="1" vertex="1">
          <mxGeometry x="1435.13" y="780" width="89.75" height="56" as="geometry" />
        </mxCell>
        <mxCell id="gzpW1YzoJddCeBnZML00-56" value="" style="edgeStyle=orthogonalEdgeStyle;rounded=0;orthogonalLoop=1;jettySize=auto;html=1;startArrow=classic;startFill=1;" parent="1" source="p4GV2qHJiXl9e6osWFzK-37" edge="1">
          <mxGeometry relative="1" as="geometry">
            <Array as="points">
              <mxPoint x="1240" y="320" />
              <mxPoint x="962" y="320" />
            </Array>
            <mxPoint x="1240" y="398.79999999999995" as="sourcePoint" />
            <mxPoint x="962" y="185.26999999999998" as="targetPoint" />
          </mxGeometry>
        </mxCell>
        <mxCell id="gzpW1YzoJddCeBnZML00-57" value="&lt;div&gt;Switch 3 TP-LINK SalaNupep&lt;br&gt;&lt;/div&gt;&lt;div&gt;192.168.2.5&lt;/div&gt;" style="text;html=1;align=center;verticalAlign=middle;whiteSpace=wrap;rounded=0;fillColor=#f5f5f5;fontColor=#333333;strokeColor=#666666;fillStyle=solid;shadow=0;" parent="1" vertex="1">
          <mxGeometry x="874.5500000000001" y="210" width="175.3" height="56" as="geometry" />
        </mxCell>
        <mxCell id="p4GV2qHJiXl9e6osWFzK-5" value="" style="shape=mxgraph.cisco.servers.fileserver;html=1;pointerEvents=1;strokeWidth=2;verticalLabelPosition=bottom;verticalAlign=top;align=center;outlineConnect=0;fillColor=#585959;strokeColor=#FFFFFF;fillStyle=auto;gradientColor=#E0E0E0;perimeterSpacing=1;shadow=0;gradientDirection=south;" vertex="1" parent="1">
          <mxGeometry x="555.85" y="95.27" width="68.3" height="90" as="geometry" />
        </mxCell>
        <mxCell id="p4GV2qHJiXl9e6osWFzK-20" value="" style="shape=mxgraph.cisco.routers.router;sketch=0;html=1;pointerEvents=1;dashed=0;fillColor=#585959;strokeColor=#FFFFFF;strokeWidth=2;verticalLabelPosition=bottom;verticalAlign=top;align=center;outlineConnect=0;gradientColor=#E0E0E0;gradientDirection=south;" vertex="1" parent="1">
          <mxGeometry x="57" y="548" width="78" height="53" as="geometry" />
        </mxCell>
        <mxCell id="p4GV2qHJiXl9e6osWFzK-24" value="" style="points=[[0.015,0.015,0],[0.5,0,0],[0.985,0.015,0],[1,0.22,0],[0.985,0.43,0],[0.73,0.85,0],[0.5,1,0],[0.285,0.85,0],[0.015,0.43,0],[0,0.22,0]];verticalLabelPosition=bottom;sketch=0;html=1;verticalAlign=top;aspect=fixed;align=center;pointerEvents=1;shape=mxgraph.cisco19.surveillance_camera;fillColor=#585959;strokeColor=#FFFFFF;gradientColor=none;" vertex="1" parent="1">
          <mxGeometry x="268" y="650" width="64" height="50" as="geometry" />
        </mxCell>
        <mxCell id="p4GV2qHJiXl9e6osWFzK-25" value="" style="points=[[0.015,0.015,0],[0.5,0,0],[0.985,0.015,0],[1,0.22,0],[0.985,0.43,0],[0.73,0.85,0],[0.5,1,0],[0.285,0.85,0],[0.015,0.43,0],[0,0.22,0]];verticalLabelPosition=bottom;sketch=0;html=1;verticalAlign=top;aspect=fixed;align=center;pointerEvents=1;shape=mxgraph.cisco19.surveillance_camera;fillColor=#585959;strokeColor=#FFFFFF;gradientColor=none;" vertex="1" parent="1">
          <mxGeometry x="457.99999999999994" y="650" width="64" height="50" as="geometry" />
        </mxCell>
        <mxCell id="p4GV2qHJiXl9e6osWFzK-26" value="" style="points=[[0.015,0.015,0],[0.5,0,0],[0.985,0.015,0],[1,0.22,0],[0.985,0.43,0],[0.73,0.85,0],[0.5,1,0],[0.285,0.85,0],[0.015,0.43,0],[0,0.22,0]];verticalLabelPosition=bottom;sketch=0;html=1;verticalAlign=top;aspect=fixed;align=center;pointerEvents=1;shape=mxgraph.cisco19.surveillance_camera;fillColor=#585959;strokeColor=#FFFFFF;gradientColor=none;" vertex="1" parent="1">
          <mxGeometry x="647.9" y="650" width="64" height="50" as="geometry" />
        </mxCell>
        <mxCell id="p4GV2qHJiXl9e6osWFzK-33" value="" style="shape=mxgraph.cisco.switches.workgroup_switch;sketch=0;html=1;pointerEvents=1;dashed=0;fillColor=#585959;strokeColor=#ffffff;strokeWidth=2;verticalLabelPosition=bottom;verticalAlign=top;align=center;outlineConnect=0;gradientColor=#E0E0E0;" vertex="1" parent="1">
          <mxGeometry x="899.62" y="120" width="125.15" height="54.4" as="geometry" />
        </mxCell>
        <mxCell id="p4GV2qHJiXl9e6osWFzK-34" value="" style="shape=mxgraph.cisco.switches.workgroup_switch;sketch=0;html=1;pointerEvents=1;dashed=0;fillColor=#585959;strokeColor=#ffffff;strokeWidth=2;verticalLabelPosition=bottom;verticalAlign=top;align=center;outlineConnect=0;gradientColor=#E0E0E0;" vertex="1" parent="1">
          <mxGeometry x="1194.8500000000001" y="120" width="125.15" height="54.4" as="geometry" />
        </mxCell>
        <mxCell id="p4GV2qHJiXl9e6osWFzK-35" value="" style="shape=mxgraph.cisco.switches.workgroup_switch;sketch=0;html=1;pointerEvents=1;dashed=0;fillColor=#585959;strokeColor=#ffffff;strokeWidth=2;verticalLabelPosition=bottom;verticalAlign=top;align=center;outlineConnect=0;gradientColor=#E0E0E0;" vertex="1" parent="1">
          <mxGeometry x="1489.6200000000001" y="120" width="125.15" height="54.4" as="geometry" />
        </mxCell>
        <mxCell id="p4GV2qHJiXl9e6osWFzK-39" style="edgeStyle=orthogonalEdgeStyle;rounded=0;orthogonalLoop=1;jettySize=auto;html=1;startArrow=classic;startFill=1;exitX=0;exitY=0.5;exitDx=0;exitDy=0;exitPerimeter=0;entryX=0.87;entryY=0.74;entryDx=0;entryDy=0;entryPerimeter=0;" edge="1" parent="1" source="p4GV2qHJiXl9e6osWFzK-36" target="p4GV2qHJiXl9e6osWFzK-37">
          <mxGeometry relative="1" as="geometry">
            <mxPoint x="1320" y="457.30999999999995" as="targetPoint" />
            <mxPoint x="1503.1999999999998" y="457.34919540229896" as="sourcePoint" />
          </mxGeometry>
        </mxCell>
        <mxCell id="p4GV2qHJiXl9e6osWFzK-36" value="" style="shape=mxgraph.cisco.routers.router;sketch=0;html=1;pointerEvents=1;dashed=0;fillColor=#585959;strokeColor=#FFFFFF;strokeWidth=2;verticalLabelPosition=bottom;verticalAlign=top;align=center;outlineConnect=0;gradientColor=#E0E0E0;gradientDirection=south;" vertex="1" parent="1">
          <mxGeometry x="1513.2" y="428.06999999999994" width="78" height="53" as="geometry" />
        </mxCell>
        <mxCell id="p4GV2qHJiXl9e6osWFzK-37" value="" style="shape=mxgraph.cisco.switches.workgroup_switch;sketch=0;html=1;pointerEvents=1;dashed=0;fillColor=#585959;strokeColor=#ffffff;strokeWidth=2;verticalLabelPosition=bottom;verticalAlign=top;align=center;outlineConnect=0;gradientColor=#E0E0E0;" vertex="1" parent="1">
          <mxGeometry x="1194.8500000000001" y="414.23" width="125.15" height="54.4" as="geometry" />
        </mxCell>
        <mxCell id="p4GV2qHJiXl9e6osWFzK-41" value="" style="shape=mxgraph.cisco.computers_and_peripherals.pc;sketch=0;html=1;pointerEvents=1;dashed=0;fillColor=#585959;strokeColor=#ffffff;strokeWidth=2;verticalLabelPosition=bottom;verticalAlign=top;align=center;outlineConnect=0;gradientColor=#E0E0E0;" vertex="1" parent="1">
          <mxGeometry x="961" y="687.46" width="78" height="70" as="geometry" />
        </mxCell>
        <mxCell id="p4GV2qHJiXl9e6osWFzK-42" value="" style="shape=mxgraph.cisco.computers_and_peripherals.pc;sketch=0;html=1;pointerEvents=1;dashed=0;fillColor=#585959;strokeColor=#ffffff;strokeWidth=2;verticalLabelPosition=bottom;verticalAlign=top;align=center;outlineConnect=0;gradientColor=#E0E0E0;" vertex="1" parent="1">
          <mxGeometry x="1441.01" y="687.46" width="78" height="70" as="geometry" />
        </mxCell>
        <mxCell id="p4GV2qHJiXl9e6osWFzK-43" value="" style="shape=mxgraph.cisco.computers_and_peripherals.pc;sketch=0;html=1;pointerEvents=1;dashed=0;fillColor=#585959;strokeColor=#ffffff;strokeWidth=2;verticalLabelPosition=bottom;verticalAlign=top;align=center;outlineConnect=0;gradientColor=#E0E0E0;" vertex="1" parent="1">
          <mxGeometry x="1201" y="687.46" width="78" height="70" as="geometry" />
        </mxCell>
      </root>
    </mxGraphModel>
  </diagram>
</mxfile>
